<?xml version="1.0" encoding="utf-8"?>
<!-- Generator: Adobe Illustrator 17.1.0, SVG Export Plug-In . SVG Version: 6.00 Build 0)  -->
<!DOCTYPE svg PUBLIC "-//W3C//DTD SVG 1.1//EN" "http://www.w3.org/Graphics/SVG/1.1/DTD/svg11.dtd">
<svg version="1.1" id="Layer_1" xmlns="http://www.w3.org/2000/svg" xmlns:xlink="http://www.w3.org/1999/xlink" x="0px" y="0px"
	 viewBox="-5 -270 20 860" enable-background="new -5 -270 20 860" xml:space="preserve">
<path fill="#787878" d="M3.1-150v2.8c-0.6,0.2-1.2,0.4-1.7,0.7l-1.9-1.9l-2.8,2.8l1.9,1.9c-0.3,0.5-0.5,1.1-0.7,1.7h-2.8v4h2.8
	c0.2,0.6,0.4,1.2,0.7,1.7l-1.9,1.9l2.8,2.8l1.9-1.9c0.5,0.3,1.1,0.5,1.7,0.7v2.8h4v-2.8c0.6-0.2,1.2-0.4,1.7-0.7l1.9,1.9l2.8-2.8
	l-1.9-1.9c0.3-0.5,0.5-1.1,0.7-1.7h2.8v-4h-2.8c-0.2-0.6-0.4-1.2-0.7-1.7l1.9-1.9l-2.8-2.8l-1.9,1.9c-0.5-0.3-1.1-0.5-1.7-0.7v-2.8
	H3.1z M0.6-140c0-2.5,2-4.5,4.5-4.5s4.5,2,4.5,4.5s-2,4.5-4.5,4.5S0.6-137.5,0.6-140z"/>
<path fill="#787878" d="M6.5-110c-4.5,0-8.2,4-8.2,9h-3.2L0-93.8l4.9-7.2H1.6c0-3,2.2-5.4,4.9-5.4s5.2,2.4,5.2,5.4s-2.2,5.4-4.9,5.4
	v3.6c4.5,0,8.2-4,8.2-9S11.1-110,6.5-110z"/>
<path fill="#787878" d="M12.5,56.8l2.6-2.8l-4-4l-2.8,2.6L12.5,56.8z M-4.9,65.7V70h4.1l12.1-11.9L7,53.8L-4.9,65.7z M-0.9,68.7
	h-2.7V66L-0.9,68.7z"/>
<polygon fill="#787878" points="10,383.2 11.1,390 5,386.4 -1.1,390 -0.1,383.2 -5,377.9 1.8,377.6 5,370.1 8.2,377.6 15,377.9 "/>
<polygon fill="#787878" points="11,420.1 0.6,410.1 -2,412.6 5.8,420.1 -2,427.6 0.6,430.1 "/>
<polygon fill="#787878" points="2.5,-54 15.1,-66.8 11.9,-70 2.5,-60.4 -1.7,-64.7 -4.9,-61.5 "/>
<path fill="#787878" d="M-4.9,110h3.1h9.2h3.1v-3.1v-4.6H7.4v4.6h-9.2v-4.6h-3.1v4.6V110z M1.2,104.6h3.1v-9l4.2,4.4l1.9-2l-7.7-8
	L-5,98l1.9,2l4.2-4.4v9H1.2z"/>
<g>
	<rect x="-5" y="290.1" fill="#787878" width="20" height="4"/>
	<rect x="-5" y="297.1" fill="#787878" width="20" height="4"/>
	<rect x="-5" y="304.1" fill="#787878" width="20" height="4"/>
</g>
<polygon fill="#787878" points="15.1,-262.7 7.8,-262.7 7.8,-270 2.4,-270 2.4,-262.7 -4.9,-262.7 -4.9,-257.3 2.4,-257.3 2.4,-250 
	7.8,-250 7.8,-257.3 15.1,-257.3 "/>
<polygon fill="#787878" points="7.1,497.3 4.2,497.3 4.2,494.3 2,494.3 2,497.3 -0.9,497.3 -0.9,499.4 2,499.4 2,502.3 4.2,502.3 
	4.2,499.4 7.1,499.4 "/>
<path fill="#787878" d="M15.1,26.9l-4.5-4.5c1.7-3.1,1.2-7.2-1.5-9.9C5.8,9.2,0.6,9.2-2.5,12.3s-3.1,8.4,0.2,11.6
	c2.7,2.7,6.7,3.2,9.9,1.5l4.5,4.5L15.1,26.9z M0.2,21.4c-1.8-1.8-1.8-4.6-0.1-6.4c1.7-1.8,4.6-1.7,6.4,0.1s1.8,4.6,0.1,6.4
	S2,23.1,0.2,21.4z"/>
<path fill="#787878" d="M15,507l-4.5-4.5c1.7-3.1,1.2-7.2-1.5-9.9c-3.3-3.3-8.5-3.3-11.6-0.2c-3.2,3.2-3.1,8.4,0.2,11.6
	c2.7,2.7,6.7,3.2,9.9,1.5L12,510L15,507z M-1,502.5c-2.4-2.4-2.4-6.2-0.1-8.5s6.1-2.3,8.5,0.1c2.4,2.4,2.4,6.2,0.1,8.5
	C5.2,504.9,1.4,504.9-1,502.5z"/>
<rect x="-0.9" y="537.3" fill="#787878" width="8" height="2.2"/>
<path fill="#787878" d="M15,547l-4.5-4.5c1.7-3.1,1.2-7.2-1.5-9.9c-3.3-3.3-8.5-3.3-11.6-0.2c-3.2,3.2-3.1,8.4,0.2,11.6
	c2.7,2.7,6.7,3.2,9.9,1.5L12,550L15,547z M-1,542.5c-2.4-2.4-2.4-6.2-0.1-8.5c2.3-2.3,6.1-2.3,8.5,0.1s2.4,6.2,0.1,8.5
	C5.2,544.9,1.4,544.9-1,542.5z"/>
<polygon fill="#787878" points="-2,450.1 12,460.1 -2,470.1 "/>
<path fill="#787878" d="M-4.9,174v14h20v-14H-4.9z M13.1,184.6L9,180.5l4.1-4.1V184.6z M5.1,184.4l2.5-2.5l4.1,4.1H-1.5l4.1-4.1
	L5.1,184.4z M10.7,176l-5.6,5.6l-5.6-5.6H10.7z M1.2,180.5l-4.1,4.1v-8.2L1.2,180.5z"/>
<polygon fill="#787878" points="-5,341.1 -2,341.1 -2,349.1 3,349.1 3,343.1 7,343.1 7,349.1 12,349.1 12,341.1 15,341.1 5,330.1 
	"/>
<g>
	<rect x="-4.9" y="130" fill="#787878" width="5" height="5"/>
	<rect x="-4.9" y="137.5" fill="#787878" width="5" height="5"/>
	<rect x="-4.9" y="145" fill="#787878" width="5" height="5"/>
	<rect x="2.6" y="130" fill="#787878" width="5" height="5"/>
	<rect x="2.6" y="137.5" fill="#787878" width="5" height="5"/>
	<rect x="2.6" y="145" fill="#787878" width="5" height="5"/>
	<rect x="10.1" y="130" fill="#787878" width="5" height="5"/>
	<rect x="10.1" y="137.5" fill="#787878" width="5" height="5"/>
	<rect x="10.1" y="145" fill="#787878" width="5" height="5"/>
</g>
<g>
	<rect x="-4.9" y="210" fill="#787878" width="5" height="4"/>
	<rect x="-4.9" y="217" fill="#787878" width="5" height="4"/>
	<rect x="-4.9" y="224" fill="#787878" width="5" height="4"/>
	<rect x="2.6" y="210" fill="#787878" width="12.5" height="4"/>
	<rect x="2.6" y="217" fill="#787878" width="12.5" height="4"/>
	<rect x="2.6" y="224" fill="#787878" width="12.5" height="4"/>
</g>
<path fill="#787878" d="M-4.9-30v20h18v-20H-4.9z M10.1-13h-12v-14h12V-13z"/>
<rect x="0.1" y="-25" fill="#787878" width="8" height="2"/>
<rect x="0.1" y="-21" fill="#787878" width="8" height="2"/>
<rect x="0.1" y="-17" fill="#787878" width="8" height="2"/>
<rect x="-4.9" y="-221" fill="#787878" width="20" height="5.5"/>
<polygon fill="#787878" points="15.1,-186.7 11.7,-190 5.1,-183.3 -1.6,-190 -4.9,-186.7 1.7,-180 -4.9,-173.3 -1.6,-170 
	5.1,-176.7 11.7,-170 15.1,-173.3 8.4,-180 "/>
<polygon fill="#787878" points="3.1,253 -4.9,253 -4.9,269 15.1,269 15.1,255 4.1,255 "/>
</svg>
